<svg id="Capa_1" data-name="Capa 1" xmlns="http://www.w3.org/2000/svg" xmlns:xlink="http://www.w3.org/1999/xlink" viewBox="0 0 2278.61 1698.5"><defs><style>.cls-1{fill:none;}.cls-2{clip-path:url(#clip-path);}.cls-3{fill:#0f5a84;}.cls-4,.cls-5{fill:#286e9e;}.cls-5{stroke:#045496;stroke-miterlimit:10;}</style><clipPath id="clip-path" transform="translate(276.54 308.5)"><rect class="cls-1" width="1920" height="1080"/></clipPath></defs><title>FondoLargePage</title><g class="cls-2"><path class="cls-3" d="M-110.06-308.5c138.34,169.78,270.2,484.93,308.6,594.39C242.07,410,257.28,514.29,349.1,564.55c80.37,44,119.64-1.94,238.12,27.55,145.9,36.31,147.13,141.63,280.83,191.77,110.9,41.59,139.08-20,348.1-29.67,251.78-11.65,447.21,66.77,544.59,107C1922.22,928,2003,961.34,2002.06,999c-4.11,170-1564.56,657.73-2050.19,0C-346.31,595.1-153.56-203.83-110.06-308.5Z" transform="translate(276.54 308.5)"/><path class="cls-4" d="M-175.13-251.33C-36.79-81.56,95.07,233.6,133.47,343.06,177,467.19,192.21,571.46,284,621.72c80.38,44,119.64-2,238.12,27.54C668.05,685.58,669.29,790.9,803,841c110.9,41.58,139.09-20,348.11-29.67,251.78-11.65,447.2,66.76,544.58,107,161.49,66.75,242.23,100.13,241.32,137.74-4.11,170-1564.56,657.72-2050.18,0C-411.38,652.27-218.63-146.66-175.13-251.33Z" transform="translate(276.54 308.5)"/><path class="cls-5" d="M2364.5,373.5" transform="translate(276.54 308.5)"/></g></svg>