<svg id="Capa_1" data-name="Capa 1" xmlns="http://www.w3.org/2000/svg" xmlns:xlink="http://www.w3.org/1999/xlink" viewBox="0 0 3105.54 2324.24"><defs><style>.cls-1{fill:none;}.cls-2{clip-path:url(#clip-path);}.cls-3{fill:#0f5a84;}.cls-4{fill:#286e9e;}</style><clipPath id="clip-path" transform="translate(293.54 -618.76)"><rect class="cls-1" width="1440" height="2560"/></clipPath></defs><title>FondoCelulares</title><g class="cls-2"><path class="cls-3" d="M-66.64,618.76c22.18,27.33,44.23,57.42,66,89.47C162.42,948.66,307.77,1300,354,1432.14,413.28,1602,434,1744.68,559.15,1813.45c109.54,60.2,163.06-2.66,324.53,37.69,198.85,49.7,200.54,193.82,382.75,262.43,151.15,56.91,189.56-27.36,474.44-40.6,343.15-15.94,609.5,91.36,742.22,146.44,220.09,91.34,330.14,137,328.9,188.48-5.6,232.59-2132.36,900-2794.22,0C-388.63,1855.26-125.93,762-66.64,618.76Z" transform="translate(293.54 -618.76)"/><path class="cls-4" d="M-155.32,697c188.54,232.33,368.26,663.59,420.58,813.37,59.34,169.86,80.07,312.55,205.21,381.32C580,1951.88,633.53,1889,795,1929.37c198.85,49.7,200.54,193.82,382.75,262.43,151.15,56.9,189.56-27.36,474.44-40.6,343.15-15.94,609.5,91.36,742.22,146.44,220.09,91.34,330.14,137,328.9,188.48-5.6,232.59-2132.36,900-2794.23,0C-477.31,1933.48-214.61,840.23-155.32,697Z" transform="translate(293.54 -618.76)"/></g></svg>