<svg id="Capa_1" data-name="Capa 1" xmlns="http://www.w3.org/2000/svg" viewBox="0 0 949.27 976.89"><defs><style>.cls-1{fill:#fff;}</style></defs><title>Logo</title><path class="cls-1" d="M541.33,721.63l1.09.74c-1.16,2.58-1.86,5.52-3.55,7.69-8.34,10.71-17.06,21.14-25.43,31.84-7.49,9.57-13.27,19.79-15.43,32.22-1.85,10.67-6,20.92-8.86,31.43-3.07,11.31-6.21,22.62-8.59,34.08-1.72,8.26-2.05,16.8-3.39,25.16a59.74,59.74,0,0,1-3.59,13.89c-5.34,12.63-11.22,25-16.8,37.57-4.9,11-10.36,21.76-20.44,28.88-6.44,4.56-6.42,12.09-9.88,18-.52.89.81,3.76,2.05,4.62,2.23,1.56,5,3.12,7.61,3.24,28.27,1.22,56.07-1.44,82.38-12.64,17.75-7.54,33.45-18.16,45.28-33.84,3.19-4.24,6.87-8.1,10.18-12.25,4.64-5.82,9.32-11.63,13.64-17.69,5.86-8.2,11.72-16.42,17-25,6.37-10.36,10.28-21.89,17.23-32.22,12.85-19.11,25.45-38.72,30.82-61.78,1.42-6.09,4.53-11.82,5.69-17.94,3.1-16.32.29-32.58-3-48.48-1.43-7-1.85-13.24,0-20,1.68-6.26,1.37-12.52-2.42-18.18-2.46-3.68-5-7.34-7.37-11.06-9.15-14.12-14.73-29.85-20.31-45.56-1.58-4.47-1.78-9.52,2.23-13,7.18-6.28,12.37-15,22.53-17.7,4.29-1.11,8.15-3.88,12.44-4.94,16.83-4.17,33.73-1.3,50.61,0,11.25.87,22.52,1.36,33.76,2.24,5.75.45,11.47,1.34,17.2,2.11,7.7,1,15.45,3.35,23.09,3,15.89-.73,31.75-2.64,47.58-4.47,15-1.72,29.87-4,44.81-6,7-.91,13.78-2,19.35-6.88a8.89,8.89,0,0,1,3.6-1.67c6.43-1.64,10.52-6.09,13.39-11.62,2.72-5.26,5.82-9.8,11.52-12.31,2.58-1.13,4.8-3.19,7-5.05,11-9.31,20.26-20.52,32.9-28,2.91-1.72,5-5.54,6.47-8.84,4.33-9.85,2.92-20.35,2-30.55-.56-6-2.88-11.64-8.43-15.68-8-5.82-15.5-12.35-23.16-18.64-5.84-4.79-11.13-10.46-17.54-14.28-5.09-3-7.63-7.31-10.76-11.75a56.35,56.35,0,0,0-10.88-11.26c-2.7-2.16-6.41-3.08-9.7-4.48-2.86-1.2-5.68-2.77-8.68-3.33-5.86-1.11-11.86-1.44-17.75-2.42-7.35-1.22-14.59-3.1-22-4.09-13.17-1.78-26.36-3.58-39.61-4.47a215.4,215.4,0,0,0-30.8.23c-9.7.73-19.35,4.17-28.95,3.92-17.28-.47-34.16,2.09-51.16,4-13.72,1.54-27.24.86-40.27-3.94a72.35,72.35,0,0,1-15.89-7.66c-4.56-3.14-8.24-7.6-12.11-11.67-3-3.17-4.6-7.08-3.25-11.45,1.46-4.72,3.74-9.21,5-14,4.13-16,12.85-29.64,21.66-43.15,4-6,6.45-12.29,4.11-18.64-4.34-11.81,1-22.58,1.86-33.81.72-9.42,3-19.13,1.51-28.22a192.66,192.66,0,0,0-11.35-42c-5.66-13.81-14.07-26.51-21.53-39.56-5.08-8.89-10.74-17.45-15.84-26.32-4.17-7.26-7.62-14.94-11.91-22.12A140,140,0,0,0,587,90.18c-10.78-13.44-21.78-26.71-32.74-40a23.64,23.64,0,0,0-3-2.63c-19-16.5-41.4-25.73-65.91-30.26-16.3-3-32.77-3.24-49.26-2.7-8,.26-10.94,4.91-7.77,11.84.48,1.05.43,2.37,1,3.32,2.25,3.54,4.14,7.55,7.13,10.35,6.23,5.86,11.86,12,15.57,19.79,3.92,8.23,8.27,16.24,12.07,24.52s8.38,16.71,10.59,25.57c2.92,11.7,3.6,23.94,5.75,35.85,1.62,8.92,3.73,17.78,6.16,26.52,3,10.8,6.73,21.41,9.81,32.19,1.32,4.61,1.12,9.71,2.81,14.13a93.61,93.61,0,0,0,16.59,28.07c8,9.27,15.5,19,23,28.68,1.67,2.16,2.36,5.08,3.5,7.65-2.83.16-4.73-.15-6.11-1.17A26.19,26.19,0,0,0,520,276.54c-10.29,0-20.58.2-30.87.28-4.83,0-9.69-.36-14.48.06-17.2,1.51-34.36,3.39-51.55,4.92-13.58,1.21-27.21,1.91-40.78,3.22-7.41.71-14.75,2.13-22.11,3.37-7.84,1.32-15.66,2.85-23.5,4.19-6.7,1.14-13.55,1.65-20.1,3.34-11.36,2.91-22.59,6.38-33.79,9.87-7.86,2.46-15.65,5.19-23.36,8.08-10.92,4.1-21.89,8.11-32.56,12.81-10.84,4.77-21.36,10.28-32,15.59a43.14,43.14,0,0,0-5.48,3.89c-7.94-10.91-17.68-18.47-28.54-24.74-5.84-3.36-11.59-6.61-18.47-2.55-2.42,1.43-5,2.6-7.53,3.85-7.65,3.81-14.51,9.29-23.35,10.58A78,78,0,0,0,100,336c-6.3,1.93-12.39,4.66-18.77,6.16-12.39,2.91-25.21,4.25-37.31,8-12.6,3.92-17.66,8.41-16,21.87a51.31,51.31,0,0,0,4,13.18c3.28,7.75,7.16,15.25,10.51,23,2,4.66,3,9.82,5.38,14.27C54,433.92,65.55,438,76.74,442.48c9.54,3.84,18.78,8.39,28.32,12.23,4.32,1.74,3.91,4.22,2.46,7.47s-2.74,6.36-4.19,9.5c-4,8.81-8.39,17.49-12,26.46a12.94,12.94,0,0,0-.07,9C96.53,519.72,102.47,532,108,544.51c1.09,2.44,1,4.74-2.35,6-4.31,1.62-8.43,3.75-12.66,5.59-7.45,3.23-14.83,6.67-22.43,9.54C63.25,568.39,56.66,572,51.41,578c-5,5.68-6.59,12.75-9.12,19.57-3.79,10.2-9.52,19.7-12.9,30-4.13,12.54-2.21,20.33,9.32,25.74A84.86,84.86,0,0,0,67.28,661a111,111,0,0,1,17.67,3c8.41,2.22,16.67,5,25,7.7,5.18,1.67,10.49,3.15,15.41,5.43,5.83,2.69,11.24,6.29,17,9.25,4.58,2.37,9.18,3,14.13.22,11.51-6.44,22.47-13.6,30.67-24.08,2.66-3.39,4-2.34,6.68-.54a104.48,104.48,0,0,0,15.77,9.15c13.27,5.77,26.72,11.14,40.22,16.37,11.19,4.34,22.5,8.4,33.85,12.28,7,2.41,14.18,4.48,21.38,6.31,9.46,2.4,19,4.68,28.53,6.53,7.49,1.45,15.11,2.15,22.67,3.2,17.4,2.42,34.76,5.29,52.22,7.13,15.36,1.62,30.84,2.09,46.27,3.08,1.49.1,3,.29,4.48.41,9.24.73,18.48,1.6,27.75,2.1,5.3.3,10.7-.52,16,.06,11.9,1.32,23.5,1.8,34-5.38C538.15,722.42,539.84,722.17,541.33,721.63Z" transform="translate(-27.4 -14.34)"/><path d="M541.33,721.63c-1.49.54-3.18.79-4.45,1.65-10.52,7.18-22.12,6.7-34,5.38-5.26-.58-10.66.24-16-.06-9.27-.5-18.51-1.37-27.75-2.1-1.5-.12-3-.31-4.48-.41-15.43-1-30.91-1.46-46.27-3.08-17.46-1.84-34.82-4.71-52.22-7.13-7.56-1-15.18-1.75-22.67-3.2-9.57-1.85-19.07-4.13-28.53-6.53-7.2-1.83-14.35-3.9-21.38-6.31-11.35-3.88-22.66-7.94-33.85-12.28-13.5-5.23-26.95-10.6-40.22-16.37A104.48,104.48,0,0,1,193.76,662c-2.71-1.8-4-2.85-6.68.54-8.2,10.48-19.16,17.64-30.67,24.08-4.95,2.76-9.55,2.15-14.13-.22-5.72-3-11.13-6.56-17-9.25-4.92-2.28-10.23-3.76-15.41-5.43-8.29-2.67-16.55-5.48-25-7.7a111,111,0,0,0-17.67-3,84.86,84.86,0,0,1-28.57-7.71c-11.53-5.41-13.45-13.2-9.32-25.74,3.38-10.3,9.11-19.8,12.9-30,2.53-6.82,4.13-13.89,9.12-19.57,5.25-6,11.84-9.61,19.18-12.38,7.6-2.87,15-6.31,22.43-9.54,4.23-1.84,8.35-4,12.66-5.59,3.31-1.24,3.44-3.54,2.35-6-5.56-12.47-11.5-24.79-16.82-37.36a12.94,12.94,0,0,1,.07-9c3.66-9,8-17.65,12-26.46,1.45-3.14,2.77-6.34,4.19-9.5s1.86-5.73-2.46-7.47c-9.54-3.84-18.78-8.39-28.32-12.23C65.55,438,54,433.92,47.91,422.42c-2.37-4.45-3.36-9.61-5.38-14.27-3.35-7.72-7.23-15.22-10.51-23A51.31,51.31,0,0,1,28,372c-1.71-13.46,3.35-17.95,16-21.87,12.1-3.75,24.92-5.09,37.31-8,6.38-1.5,12.47-4.23,18.77-6.16a78,78,0,0,1,11.58-2.67c8.84-1.29,15.7-6.77,23.35-10.58,2.53-1.25,5.11-2.42,7.53-3.85,6.88-4.06,12.63-.81,18.47,2.55,10.86,6.27,20.6,13.83,28.54,24.74a43.14,43.14,0,0,1,5.48-3.89c10.59-5.31,21.11-10.82,32-15.59,10.67-4.7,21.64-8.71,32.56-12.81,7.71-2.89,15.5-5.62,23.36-8.08,11.2-3.49,22.43-7,33.79-9.87,6.55-1.69,13.4-2.2,20.1-3.34,7.84-1.34,15.66-2.87,23.5-4.19,7.36-1.24,14.7-2.66,22.11-3.37,13.57-1.31,27.2-2,40.78-3.22,17.19-1.53,34.35-3.41,51.55-4.92,4.79-.42,9.65,0,14.48-.06,10.29-.08,20.58-.25,30.87-.28a26.19,26.19,0,0,1,16.21,5.34c1.38,1,3.28,1.33,6.11,1.17-1.14-2.57-1.83-5.49-3.5-7.65-7.48-9.7-15-19.41-23-28.68a93.61,93.61,0,0,1-16.59-28.07c-1.69-4.42-1.49-9.52-2.81-14.13-3.08-10.78-6.81-21.39-9.81-32.19-2.43-8.74-4.54-17.6-6.16-26.52-2.15-11.91-2.83-24.15-5.75-35.85-2.21-8.86-6.74-17.18-10.59-25.57S456,68.1,452.09,59.87c-3.71-7.8-9.34-13.93-15.57-19.79-3-2.8-4.88-6.81-7.13-10.35-.6-.95-.55-2.27-1-3.32-3.17-6.93-.27-11.58,7.77-11.84,16.49-.54,33-.3,49.26,2.7C509.9,21.8,532.28,31,551.3,47.53a23.64,23.64,0,0,1,3,2.63c11,13.31,22,26.58,32.74,40a140,140,0,0,1,11.23,15.76c4.29,7.18,7.74,14.86,11.91,22.12,5.1,8.87,10.76,17.43,15.84,26.32,7.46,13.05,15.87,25.75,21.53,39.56a192.66,192.66,0,0,1,11.35,42c1.47,9.09-.79,18.8-1.51,28.22-.86,11.23-6.2,22-1.86,33.81,2.34,6.35-.16,12.6-4.11,18.64-8.81,13.51-17.53,27.19-21.66,43.15-1.24,4.76-3.52,9.25-5,14-1.35,4.37.23,8.28,3.25,11.45,3.87,4.07,7.55,8.53,12.11,11.67A72.35,72.35,0,0,0,656,404.48c13,4.8,26.55,5.48,40.27,3.94,17-1.92,33.88-4.48,51.16-4,9.6.25,19.25-3.19,28.95-3.92a215.4,215.4,0,0,1,30.8-.23c13.25.89,26.44,2.69,39.61,4.47,7.37,1,14.61,2.87,22,4.09,5.89,1,11.89,1.31,17.75,2.42,3,.56,5.82,2.13,8.68,3.33,3.29,1.4,7,2.32,9.7,4.48a56.35,56.35,0,0,1,10.88,11.26c3.13,4.44,5.67,8.73,10.76,11.75,6.41,3.82,11.7,9.49,17.54,14.28,7.66,6.29,15.15,12.82,23.16,18.64,5.55,4,7.87,9.68,8.43,15.68,1,10.2,2.36,20.7-2,30.55-1.45,3.3-3.56,7.12-6.47,8.84-12.64,7.46-21.94,18.67-32.9,28-2.2,1.86-4.42,3.92-7,5.05-5.7,2.51-8.8,7-11.52,12.31-2.87,5.53-7,10-13.39,11.62a8.89,8.89,0,0,0-3.6,1.67c-5.57,4.84-12.38,6-19.35,6.88-14.94,2-29.84,4.25-44.81,6-15.83,1.83-31.69,3.74-47.58,4.47-7.64.35-15.39-2-23.09-3-5.73-.77-11.45-1.66-17.2-2.11-11.24-.88-22.51-1.37-33.76-2.24-16.88-1.31-33.78-4.18-50.61,0-4.29,1.06-8.15,3.83-12.44,4.94-10.16,2.66-15.35,11.42-22.53,17.7-4,3.51-3.81,8.56-2.23,13,5.58,15.71,11.16,31.44,20.31,45.56,2.41,3.72,4.91,7.38,7.37,11.06,3.79,5.66,4.1,11.92,2.42,18.18-1.81,6.77-1.39,13,0,20,3.26,15.9,6.07,32.16,3,48.48-1.16,6.12-4.27,11.85-5.69,17.94-5.37,23.06-18,42.67-30.82,61.78-7,10.33-10.86,21.86-17.23,32.22-5.27,8.58-11.13,16.8-17,25-4.32,6.06-9,11.87-13.64,17.69-3.31,4.15-7,8-10.18,12.25-11.83,15.68-27.53,26.3-45.28,33.84-26.31,11.2-54.11,13.86-82.38,12.64-2.61-.12-5.38-1.68-7.61-3.24-1.24-.86-2.57-3.73-2.05-4.62,3.46-5.88,3.44-13.41,9.88-18,10.08-7.12,15.54-17.88,20.44-28.88,5.58-12.53,11.46-24.94,16.8-37.57a59.74,59.74,0,0,0,3.59-13.89c1.34-8.36,1.67-16.9,3.39-25.16,2.38-11.46,5.52-22.77,8.59-34.08,2.86-10.51,7-20.76,8.86-31.43,2.16-12.43,7.94-22.65,15.43-32.22,8.37-10.7,17.09-21.13,25.43-31.84,1.69-2.17,2.39-5.11,3.55-7.69ZM630.08,503c.62,14-2.62,28.52,5.35,41.74,6.62,11,11.77,22.9,18.91,33.49,2.56,3.8,6.21,9.89,13.56,7.73,10.65-3.14,21.43-1.64,32.23-.52,13.87,1.44,27.8,2.38,41.69,3.61,11.36,1,22.85,1.36,34,3.41,8.13,1.5,15.78,3.36,24.29,2,18.5-3,37.17-5.08,55.76-7.6,7.86-1.06,15.66-2.61,23.54-3.34,11.75-1.09,20.41-6.5,26.57-16.57,3.9-6.36,8.4-12.3,16-15a16.34,16.34,0,0,0,6-4.26q14.63-15.61,29-31.49a5.36,5.36,0,0,0,1.58-3.43c-.4-4.9-1.18-9.77-1.72-14.66a3.86,3.86,0,0,1,.57-2.74c2.37-2.58,1-4.44-.79-6.47-5.49-6.2-10.66-12.7-16.43-18.62-5.52-5.66-11-11.89-17.67-15.8-8.13-4.75-13.24-11.51-18.56-18.73-4.45-6-9.52-11.86-18.25-12.32a176.87,176.87,0,0,1-19.27-2.47c-8-1.32-15.89-3.25-23.9-4.37-12.66-1.78-25.44-2.7-38.05-4.74-9.42-1.53-18.34-1.61-27.75.93s-19.39,4.57-28.92,3.88c-16-1.17-31.49,2.15-47.18,3.47-11,.92-21.83,2.32-32.76-.39-2-.5-5.08-.42-6.49.78-6.54,5.56-12.28,11.88-15.86,19.91-3.36,7.53-7.09,14.89-10.35,22.46-2,4.61-4.37,9.4-4.81,14.26C629.51,485.66,630.08,494.36,630.08,503ZM612.87,364.14l2-.47c1.87-4.69,4.14-9.27,5.53-14.11,4.11-14.36,12.48-26.53,20.18-38.94,2.86-4.61,3.84-8.51,2.65-13.43a18.18,18.18,0,0,1-.68-5.36c.46-6.22,1.2-12.43,1.73-18.65.29-3.48.3-7,.57-10.46.7-8.87,2.37-17.78,1.91-26.58-.37-6.89-3.54-13.6-5.1-20.47a120.45,120.45,0,0,0-14.73-35.47c-6.31-10.47-13.18-20.61-19.26-31.2-4.25-7.41-7-15.71-11.48-22.94C585.51,108.92,575,91.65,560.69,77.12a31.38,31.38,0,0,1-4.46-5.33c-8.5-13.79-21.57-22.26-35.13-30-10-5.68-20.91-8.66-32.2-10.95-13.4-2.7-26.77-5-40.47-4.49-1.46.05-2.88,1.09-4.32,1.67.71,1.53,1.16,3.26,2.18,4.55C451.17,38.78,457,44.39,461,51.1c5.72,9.62,10.3,19.93,15,30.1,3.82,8.22,8.26,16.39,10.43,25.08,2.93,11.69,3.66,23.91,5.86,35.8,1.77,9.54,4,19,6.58,28.39,2.85,10.51,6.27,20.87,9.41,31.3,2.18,7.23,3,15.31,6.79,21.51,6.49,10.51,14.72,20,22.53,29.61,8.08,10,15.84,19.86,17.82,33.19.89,6,1.19,12.35,7.44,16.61a107,107,0,0,1,24.67,23.67c4.72,6.18,10.75,12,13.19,19.08C603.47,353.2,610.19,357,612.87,364.14Zm1.39,276.31c-2.11,2.6-3.33,3.91-4.32,5.36-3.77,5.48-7.39,11-10.68,16.85-9.31,16.64-22.79,30.05-37.81,41.78a12,12,0,0,0-4.86,8.77c-1.29,11.22-4.7,21.68-12,30.54s-14.91,17.8-22.26,26.79a59.21,59.21,0,0,0-12,23.15c-2.91,11.53-6,23-9.12,34.48-2.83,10.35-6.37,20.53-8.6,31-1.85,8.73-2.1,17.79-3.37,26.65-.72,5.08-1.35,10.37-3.28,15-5.45,13.11-11.62,25.91-17.37,38.9-5.19,11.69-10.95,23-20.58,31.79-1.67,1.53-2.67,3.79-4,5.71,2.4.66,4.8,1.91,7.19,1.89a176,176,0,0,0,57.53-10c15.4-5.5,29.17-14,39.91-26,12.09-13.56,22.78-28.39,33.76-42.91A189.08,189.08,0,0,0,596,879.54c3.16-5.55,4.7-12,7.93-17.54,8.36-14.24,17.62-28,25.77-42.3,4.1-7.23,6.65-15.35,9.71-23.15,1.33-3.38,1.74-7.16,3.32-10.39,6.27-12.82,4.5-26.26,3.52-39.64-.41-5.57-1.33-11.09-1.82-16.65-.38-4.3-.45-8.63-.65-13-.15-3.18-.27-6.37-.44-9.56s.5-6.58-.76-9.11c-2.78-5.6-7-10.51-9.83-16.07-4.44-8.6-8.37-17.47-12.34-26.31C618.38,651.28,616.68,646.52,614.26,640.45ZM464.93,502.83c1.25-9.67-2.31-18.38-6.18-26.45-12.28-25.68-33.56-41-60.89-46.45a83.46,83.46,0,0,0-44.28,2.71c-18.46,6.56-33.83,17.21-44.69,33.86-5.68,8.7-10.07,18.09-11.31,28.31-1,7.94-.85,16,1.9,24.1,3.3,9.73,7.68,18.7,14.12,26.54,11.92,14.5,27.06,23.78,45.38,28.67,13.26,3.54,26.54,3.46,39.47,1.31a78.59,78.59,0,0,0,37.77-17.68C453.31,543.35,463.9,525.52,464.93,502.83Zm-326.53-.05c.6,2.6,1.15,5.35,1.87,8.05,1,4,2.29,7.88,3.33,11.86,2.05,7.81,3.75,15.73,6.11,23.44a28.32,28.32,0,0,0,9.3,14.35c2.66,2.15,4.12,5.8,6.05,8.83,1.41,2.23,2.62,4.59,4.07,6.8,2.11,3.25,4.25,6.47,6.56,9.58,1.8,2.43,7.33,1.86,10.3-1.13,3.39-3.41,6-7.92,10-10.39,11.53-7.24,20.73-17,30.25-26.41,2.85-2.84,3.52-4.87.64-8.34-6.3-7.57-10.72-15.95-12.26-26.1-2.73-18,.67-33.94,12.65-47.76,2.48-2.87,2-5-.43-7.25q-20.58-18.94-41.24-37.82c-3-2.74-8.22-2.95-9.95-.57q-3.12,4.27-6,8.71c-3.67,5.64-6.47,12.1-11.1,16.77A37.09,37.09,0,0,0,149,461.87c-2.52,8.68-5.11,17.34-7.45,26.08C140.29,492.73,139.49,497.63,138.4,502.78ZM473.58,335.56l-1.07-.07c0-7.67-.17-15.34.06-23,.14-4.6-1.67-6.46-6.2-5.95-8.75,1-17.49,2-26.26,2.84q-30.8,2.87-61.62,5.48c-3.52.29-5.3,1.8-5.41,5.14-.18,5.31-.35,10.64-.15,15.94.36,9.47,1.43,18.93,1.42,28.4,0,13-.93,25.9-1.11,38.85-.05,3.4,1.62,6.49,5.89,6.55,10.27.16,20.42.23,30.7,2.15,7.64,1.42,14.62,3.38,21.15,7.28,2.92,1.75,4.8.95,6.8-1.55a32,32,0,0,1,6-5.67c5.87-4.31,11.87-8.44,17.87-12.59,4.49-3.1,7.52-7.46,8-12.68C471.24,369.67,472.31,352.6,473.58,335.56ZM472.5,670.49h.37c0-4.82.28-9.66-.06-14.45-.84-12.08-1.87-24.14-3-36.2a18.39,18.39,0,0,0-7.73-13.37c-3.72-2.76-7.77-5.09-11.42-7.93a170.09,170.09,0,0,1-13.44-11.41c-2.32-2.24-4-1.94-6.54-.61-4.63,2.42-9.32,5.63-14.29,6.32-11.59,1.63-23.36,2.08-35.08,2.75-5.94.34-8.27,2.07-8.14,8,.29,12.77.92,25.54,1.39,38.31a52.72,52.72,0,0,1,0,5.48c-.65,10.46-1.43,20.91-2,31.37a19.9,19.9,0,0,0,.88,7.86c.6,1.61,2.67,3.6,4.27,3.78,10.72,1.2,21.5,1.91,32.25,2.89,11.09,1,22.16,2.12,33.24,3.23,7.76.78,15.52,1.57,23.26,2.45,4.66.53,6.21-1.58,6.08-6C472.35,685.47,472.5,678,472.5,670.49Zm-290.73-318c-9.9-7.46-18.56-14.31-27.63-20.56-2.09-1.44-5.67-1.42-8.39-1-2.47.4-4.77,2.17-7,3.54-7.36,4.45-14.64,8.81-23.45,10.2a78.3,78.3,0,0,0-18.61,5,83.1,83.1,0,0,1-27.84,6.7,68.16,68.16,0,0,0-25.67,7.16C40.22,365,39,367.27,39.88,370c1.71,5.3,3.9,10.46,6.06,15.61,1.38,3.29,3.32,6.36,4.58,9.7,2.15,5.71,3.72,11.66,6,17.33,3.66,9.18,11.7,13.79,20.1,17.47,11.15,4.87,22.51,9.26,33.93,13.44,1.45.53,4.45-.87,5.61-2.29,2.7-3.31,4.55-7.29,7-10.79,7-9.84,14.66-19.27,21.14-29.45a171.14,171.14,0,0,1,19.44-25.65C170.06,368.69,175.22,360.94,181.77,352.52Zm-.08,300.55c-6.12-8-11.35-15-16.71-21.9-6.28-8.07-12.9-15.89-19-24.12-9-12.26-17.73-24.77-26.52-37.2-1.79-2.55-2.89-6.59-5.23-7.47s-6,1-8.9,2.15c-11.37,4.38-22.81,8.6-33.94,13.53-7.81,3.47-13.52,9.35-16,18S50.5,613.41,45.27,621.1a44.13,44.13,0,0,0-5.1,11.79c-1.6,5.21-.27,8.39,5.07,10.11,7.67,2.48,15.62,4.12,23.49,5.92,7.24,1.66,14.6,2.83,21.8,4.64s14.21,4.13,21.31,6.21c4.43,1.29,9.08,2.06,13.24,4,6.59,3,12.87,6.67,19.24,10.14,3.55,1.94,6.9,2.07,10.23-.44C163.23,666.88,171.94,660.37,181.69,653.07Zm396-238.16c-1,1.26-1.65,2.14-2.37,2.94-9.34,10.31-18,21.31-28.26,30.67-7,6.46-16,10.89-24.45,15.74-3.32,1.92-7.66,2.19-8.41,7.06-.32,2.1-1.08,4.22-1,6.3.39,8.28,1.5,16.55,1.48,24.83,0,8.94-1.19,17.88-1.48,26.83-.19,5.78,2.44,9,7.56,10.88a60,60,0,0,1,8.56,3.89c18.83,10.75,33.24,26.21,45.95,43.45,2.21,3,4.35,2.87,6.18-.36,2.13-3.73,4.51-7.32,6.4-11.17.74-1.51,1.18-3.94.48-5.29-7.88-15-10.55-31.49-11.25-47.9-.75-17.65-1.79-35.4,1.66-53.21,2.09-10.75,3.41-21.57,8.33-31.39,2.46-4.91,2-8.45-1.52-12.4-1.81-2-2.59-5-4.12-7.3C580.6,417.2,579.17,416.3,577.67,414.91Zm-93.31-91.35c0,12.47.31,24.95-.11,37.41-.27,8.43-1.67,16.81-2.31,25.24-.13,1.6.4,4,1.52,4.83,6.44,4.6,13.2,8.74,19.75,13.18,10.5,7.14,16.75,16.92,17.56,29.74.27,4.31-.28,8.66-.2,13,0,1.33.9,2.65,1.38,4a24,24,0,0,0,3.47-1.42c17.81-10.82,30.88-26.41,43-42.91,2.15-2.93,1.37-5.5-.44-8.18-3.32-4.93-6.9-9.74-9.76-14.94-5.44-9.92-6.22-21.18-7.49-32.06-1.63-14.07-8.74-24.64-20.41-31-9.22-5.06-20-7.29-30.18-10.58a92.73,92.73,0,0,0-11.11-2.56c-3.34-.64-4.95.71-4.75,4.34C484.54,315.56,484.37,319.57,484.36,323.56Zm0,351.32h.05c0,5.49,0,11,0,16.48,0,7.23,1.17,8.42,8.11,6.49,11.44-3.18,23-6.2,34.09-10.32,10.08-3.73,16.91-12,21-21.47,3.18-7.26,4.47-15.65,5.09-23.66.93-11.9,5.53-21.86,12.55-31.17,6.24-8.28,6-9.16-.78-17.4-1.16-1.41-2.44-2.73-3.48-4.22-9.72-14-22.22-25-36.3-34.32-2.83-1.89-4.07-.78-4.11,2.12-.06,4.65.95,9.47,0,13.93-1.3,6.48-2.55,13.65-6.22,18.83-7.22,10.19-17.86,17.07-28.73,23.07-3.13,1.73-4.13,3.43-3.83,6.5.81,8.07,2.05,16.13,2.38,24.23C484.66,654.25,484.34,664.57,484.34,674.88Zm-124.2-57,.8-.06c0-4.83-.1-9.66,0-14.48.15-5.64-2.19-8.67-7.7-10.35A96.81,96.81,0,0,1,341,588.4c-4.44-2-8.61-4.67-13-6.84-1.4-.7-3.28-1.34-4.68-1a76.34,76.34,0,0,0-9.56,3.54c-7.48,3.07-15.05,5.94-22.34,9.42-4.35,2.08-10.18,4.24-12,8a90.25,90.25,0,0,0-8.65,36.41,65.71,65.71,0,0,1-1.26,11.88c-.94,4.36.56,7.4,4.33,9,7.46,3.07,15.06,5.84,22.69,8.49,6.24,2.15,13,3.14,18.84,6.06,12.45,6.23,26.09,8.08,39.21,11.83,4.53,1.3,5.78-.1,5.95-5.1.29-8.48.54-17,.91-25.46.17-3.8,1-7.61.81-11.37C361.82,634.75,360.88,626.33,360.14,617.9Zm.94-257.51.83,0C361.46,349,361,337.5,360.59,326c-.21-5.94-2-7.14-7.83-5.35-3,.91-6.09,1.42-9.11,2.22-4.94,1.31-9.92,2.54-14.77,4.12-8.76,2.87-17.47,5.9-26.15,9-9.63,3.44-19.26,6.88-28.76,10.65-3.73,1.48-5.35,4.48-4.44,8.89.87,4.2.63,8.63,1.39,12.86,1.85,10.4,3.71,20.82,6.18,31.07.89,3.65,2.7,7.32,7,9.09,10.69,4.43,21.05,9.66,31.87,13.7,9,3.36,9.21,2.8,18.47-2A117,117,0,0,1,345.25,415c3.49-1.37,7.64-1.45,10.71-3.35,2.34-1.45,4.81-4.83,4.89-7.42C361.32,389.61,361.08,375,361.08,360.39Zm-50.91,72.76c-8.9-3.86-17.13-7.65-25.57-10.88-1.42-.54-4.32.8-5.58,2.15-3.82,4.12-7,8.82-10.72,13-6.71,7.56-13.81,14.78-20.42,22.42-5.08,5.88-9.22,12.63-14.62,18.17a20.93,20.93,0,0,0-6.11,13.14c-.37,3.64-.46,7.31-.49,11-.11,11.12.78,21.31,10.37,29.74,7.32,6.43,12.11,15.65,18.47,23.26,7.74,9.26,15.88,18.19,24.05,27.08a5.44,5.44,0,0,0,4.81,1.18c8.53-3.42,16.91-7.2,25.92-11.12-1.27-2-2.13-3.55-3.14-5-3.46-4.83-7.27-9.43-10.4-14.46-6.18-9.89-10.68-20.61-11.24-32.35a278.17,278.17,0,0,1,.17-36.18,64.48,64.48,0,0,1,6.18-22.69c4.21-8.5,10.49-16,15.82-23.91C308.55,436.42,309.19,435,310.17,433.15Zm135.55-6.06c7.15,9.31,14,17.17,19.63,25.83,7.1,10.91,11.49,23,11.55,36.32,0,10.75.68,21.61-.54,32.23-.92,8-3.62,16.06-6.85,23.51-5.37,12.42-13.68,22.95-26.2,33.36a43,43,0,0,1,5.79,3.07c8.07,6.05,16.36,11.87,23.91,18.51,3.69,3.25,6.66,3.33,10.12.94a84.61,84.61,0,0,0,11.76-9.16c4.26-4.24,8.69-8.69,11.57-13.88,6-10.81-.42-21.6-1.58-32.38-.71-6.67-3.19-13.2-3.5-19.85-.55-12.13.75-24.38-.25-36.45-1.31-15.69,4.61-29.91,7-44.84a32.42,32.42,0,0,0-1-15.05c-4.27-12.39-15.59-18.41-25.53-25.4-1.52-1.08-5.3-.45-7.16.75-5.4,3.48-10.42,7.58-15.47,11.58C454.17,419.93,449.6,423.87,445.72,427.09ZM269.85,415.47c-2.18-7-3.88-13-5.9-18.89a91.72,91.72,0,0,1-5.28-29.19,42.63,42.63,0,0,0-.6-6.95c-.5-2.83-1.85-4.37-4.75-2.13-5,3.81-9.93,7.64-14.91,11.44-15,11.44-31.36,21.17-44.34,35.19-1.73,1.87-3.57,3.4-1.12,5.7q9,8.44,18.28,16.64c4.21,3.71,8.78,7,12.9,10.84,3.64,3.37,7,7.12,10.29,10.82,2.49,2.77,4.38,2.09,6.46-.51,2.26-2.82,4.69-5.52,7.18-8.14,5.82-6.11,11.82-12,17.52-18.25C267.52,419.92,268.77,417.17,269.85,415.47Zm.6,175c-2.27-3.15-4.31-6.75-7.07-9.67-6.92-7.36-14.43-14.17-21.2-21.65-4.94-5.46-4.77-5.69-10-.44-5.93,6-11.91,12-18.15,17.73-6.67,6.08-13.72,11.75-20.51,17.72-2.23,2-2.45,3.94.2,6.17,3.68,3.1,6.76,6.93,10.54,9.88,9.92,7.73,20.08,15.15,30.13,22.71,6.2,4.66,12.43,9.29,18.54,14.07,3,2.34,4.46,1.41,5.13-1.93a18.36,18.36,0,0,0,.51-3.95c-.36-15.16,3.91-29.39,8.65-43.52C268,595.43,269.11,593.42,270.45,590.46ZM587.1,498.65c1.94,22.46,2.33,40.76,8.93,58.12,2.16,5.67,3.06,6.12,7.88,2,4.3-3.66,8.27-7.75,12.81-11.09,3-2.19,3.92-4.32,3.39-8-1.92-13.08-6-25.94-4.48-39.4.74-6.54,1.45-13.08,2.3-19.6.72-5.61,1.73-11.18,2.36-16.8a5.4,5.4,0,0,0-1.25-4.05c-5.49-5.05-11.08-10-16.95-14.61-1.05-.81-4.51-.4-5.23.6a18.62,18.62,0,0,0-2.94,7.78C591.32,470,588.93,486.4,587.1,498.65Zm-80.48-210H493.44c-2.94,0-4.75,1.79-4.08,4.31.47,1.77,2.81,4.3,4.36,4.32,12.33.22,23.58,4.57,35,8.27,13.18,4.24,21.72,14.06,28.23,25.15,3.65,6.22,4.06,14.39,5.62,21.75,1.09,5.14,3.26,6.45,8,4.66s9.91-3.47,15-4.9c3-.85,4.24-2.62,2.36-5-7-8.82-13.85-17.84-21.63-25.94-6.27-6.54-14-11.69-20.73-17.78C534.54,293.57,522.79,285.72,506.62,288.67Zm0,428.69c13.41,2.16,24.42-3.14,34.34-11.31,7.66-6.32,15.43-12.62,22.36-19.7,8.52-8.72,16.37-18.12,24.21-27.48,2.6-3.1,1.43-4.71-2.65-5.69a82.69,82.69,0,0,1-12.72-3.87c-7.19-3-9.4-2-9.68,5.91-.62,17.47-10.08,30-23.49,39.31-12.37,8.59-27.17,11.57-42,13.39-1.48.18-3.31-.23-4.38.5-1.44,1-3.31,3-3.14,4.28a5.72,5.72,0,0,0,3.78,3.88C497.63,717.27,502.15,717.16,506.63,717.36Zm88.9-120c-6,.54-8.34,4.38-11,8.34-5,7.55-10.7,14.67-15.68,22.25s-3.76,10.53,4.8,13.41c4.51,1.51,8.9,3.53,13.51,4.53,2.54.55,6.88.45,7.93-1.07,7.61-11,14.65-22.34,21.67-33.72.62-1,.27-3.89-.45-4.24C609.5,603.53,602.49,600.52,595.53,597.4Zm-.8-189.06c7-3.07,13.47-6,20.06-8.8,3.22-1.34,3.41-3.14,1.72-5.81-6.51-10.3-13.18-20.51-19.38-31-2.66-4.49-6.08-4.37-10.13-3.25-2.69.74-5.39,1.46-8,2.46a105.21,105.21,0,0,0-10.81,4.77c-1,.53-2.08,2.48-1.83,3.45a27.47,27.47,0,0,0,3.26,8.18c5.44,8.42,11,16.8,16.93,24.84C588.23,405.42,591.56,406.41,594.73,408.34ZM187.21,394.46c4.24-3.93,7.84-7.84,12-11,11.32-8.66,22.91-16.95,34.23-25.59,1.17-.89,2.18-3.66,1.65-4.78a80.13,80.13,0,0,0-7.35-12.3,4.87,4.87,0,0,0-4.58-1.08c-4.63,2.38-8.88,5.48-13.47,8-14.87,8-25.37,20.38-34.55,34.5ZM187.7,613l-12.86,10.39c2.23,3,3.92,5,5.36,7.22,7.6,11.59,17.67,20.46,29.63,27.31,4.52,2.59,8.79,5.63,13.43,8,1.1.55,3.9-.47,4.75-1.63,2.42-3.29,4-7.19,6.37-10.54,2-2.89,1.49-4.45-1.23-6.48C217.66,635.71,202.31,624,187.7,613Zm460-197.59a32.27,32.27,0,0,0-3.07-2.47c-5-3.09-9.93-6.28-15.1-9-1.25-.66-3.55-.17-5,.56a52.4,52.4,0,0,0-6.91,4.72c-5.56,4.09-12.08,5.6-18.63,7.07-1.08.24-2.86.59-3,1.14a4.4,4.4,0,0,0,1,3.44c8.48,8.76,17,17.46,25.68,26,2.39,2.36,4.22,1.91,6.13-1.38,5.45-9.4,11.4-18.52,17.16-27.74C646.39,417.07,646.9,416.45,647.67,415.4Zm0,175c-.73-1.19-1.15-1.87-1.57-2.53-5.8-9.22-11.87-18.27-17.26-27.72-2.07-3.62-3.79-4-6.36-1.4q-12.79,12.69-25.34,25.64c-.8.83-1.59,2.57-1.23,3.37s2.11,1.16,3.32,1.47c4,1,8.6,1,11.75,3.12,4.47,3.05,10.55,3.53,13.83,8.7.49.78,4.16.21,5.95-.63,4-1.85,7.72-4.22,11.51-6.46C644.08,593,645.77,591.72,647.69,590.44ZM118.3,498.27c7.71,0,8.17.06,9.57-7.43,1.85-9.88,7-18.24,10.89-27.22,1.8-4.17,3.56-9.58,2.37-13.54-1.51-5-7.59-2-11.62-2.71a2.46,2.46,0,0,0-1.48.07c-.8.46-1.87.95-2.19,1.7-1.88,4.37-3.52,8.83-5.34,13.23-3.71,8.95-7.23,18-11.33,26.76-2.3,4.95-.82,8.64,4.64,9.12C115.3,498.38,116.8,498.27,118.3,498.27Zm-.3,9a39.52,39.52,0,0,0-5,0c-3.83.49-6.54,4.43-5.15,7.3,1.2,2.48,2.57,4.89,3.64,7.43,4,9.53,8,19.12,12,28.67,1,2.38,2,6.39,3.46,6.66,4.24.76,8.8.22,13.13-.45.92-.14,2.19-3.12,1.95-4.57a38,38,0,0,0-3.09-10.4c-4.27-8.81-9.09-17.3-11-27.14C126.42,507.17,126,507.26,118,507.28Zm61.6,96.58c-1.94-3.05-3.49-6.14-5.64-8.72-5.88-7.07-12.46-13.59-17.92-21-4.3-5.81-9.33-7.71-16.2-7-3.13.31-4.78,1.81-3.79,4.26a60.76,60.76,0,0,0,6.73,12.17c5.47,7.73,11.34,15.18,17,22.75,1.69,2.25,3.24,4.62,5.05,6.77,1.94,2.32,3.92,3.47,6.36.18,1.63-2.2,4-3.85,5.94-5.85A28.5,28.5,0,0,0,179.6,603.86Zm-37-164.74c5.85.49,9.31-2.85,12.5-6.61,5.64-6.64,11.09-13.43,16.82-20,8.23-9.4,9.8-11.33.48-19.38-4.42-3.82-5.11-4.11-8.74.76-8.52,11.44-17,22.92-25.19,34.59a12.11,12.11,0,0,0-2,7.95C136.67,437.6,140.45,438.24,142.59,439.12Zm316,278.06c0-.15,0-.3.05-.45,6.16,0,12.33.1,18.49-.1,1.16,0,3.14-1.17,3.23-2,.14-1.36-.61-3.83-1.52-4.11-4.29-1.34-8.73-2.68-13.18-2.94-8.14-.47-16.32-.14-24.48-.24-1.79,0-3.58-.6-5.38-.73-7.89-.55-15.78-1.12-23.68-1.44-.88,0-2.22,1.37-2.62,2.39a3.26,3.26,0,0,0,.87,3c2.23,1.31,4.65,2.85,7.12,3.1C431.22,715.06,444.94,716.06,458.64,717.18ZM235.1,336.63c.89,2.44,1.54,4.38,2.28,6.29,1.75,4.49,7,6.84,10.84,4a112.59,112.59,0,0,1,26.36-14.08c3.6-1.4,7.1-3,10.66-4.55-1.41-3.09-1.89-6.47-3.66-7.41-2.16-1.15-5.5-.68-8.18-.17a52.59,52.59,0,0,0-20.21,8.88c-.77.53-1.91.48-2.82.84C245.25,332.48,240.16,334.57,235.1,336.63Zm-.33,331c0,.64,0,1.28,0,1.93,13,1.45,22.35,11.75,35.31,13.4.75.1,1.42.82,2.15,1.19,5.28,2.74,8.38,1.71,11-3.53a34.12,34.12,0,0,1,2.52-3.55c-14.82-5.71-29.15-11.31-42-21.89ZM422,300.6l0-.54c14-.72,28.06-1.31,42.07-2.24,4.12-.27,8.16-1.72,12.29-2.21,3.06-.36,5.12-1.61,4-4.6-.46-1.22-3.39-2.2-5.14-2.13-16.07.69-32.13,1.65-48.2,2.49-5,.26-10.34-.83-14.68,2.88-1.09.93-2,2.06-3,3.1,1.24,1.08,2.35,2.88,3.72,3.11C416,300.94,419.05,300.6,422,300.6ZM289.89,689.78c14.14,3.6,28,7.29,41.91,10.43,1.53.34,3.76-2.47,5.66-3.82-1.53-1.4-2.82-3.38-4.62-4.09-4.73-1.87-9.69-3.13-14.53-4.73-6.72-2.22-13.37-4.67-20.15-6.72-2.89-.87-5.45-.16-6.22,3.49A42.67,42.67,0,0,1,289.89,689.78Zm.19-374.14c.8,2.56,1,4.7,2.05,6.13s3.25,3.32,4.83,3.23c3-.17,6-1.51,9-2.49,9.2-3.05,18.43-6,27.52-9.38,1.62-.6,2.66-2.75,4-4.18-2.12-1.23-4.55-3.87-6.3-3.47C317.48,308.51,304,312.13,290.08,315.64ZM386.41,710l.27-1.19a74.65,74.65,0,0,0,9-.11c1.41-.17,2.69-1.49,4-2.28-1.25-1.31-2.33-3.46-3.8-3.78-5.78-1.26-11.69-1.9-17.53-2.87-8.71-1.43-17.38-3.18-26.13-4.25-1.87-.23-4,1.91-6,3,1.33,1.55,2.38,3.91,4,4.48,2.91,1,6.24.69,9.32,1.31C368.52,706.11,377.46,708.11,386.41,710Zm13.83-410-.15-1.86c-1.4-.57-2.84-1.69-4.2-1.6-8.66.55-17.35-1.1-26,2.26-6,2.32-12.87,2.36-19.35,3.39-2.78.44-5.43,1.82-4.08,4.69.77,1.64,4.23,3.13,6.24,2.87,7.09-.92,14-2.83,21.11-4,7.29-1.19,14.67-1.8,22-3C397.36,302.58,398.75,301,400.24,300.06Z" transform="translate(-27.4 -14.34)"/><path class="cls-1" d="M630.08,503c0-8.65-.57-17.35.22-25.94.44-4.86,2.83-9.65,4.81-14.26,3.26-7.57,7-14.93,10.35-22.46,3.58-8,9.32-14.35,15.86-19.91,1.41-1.2,4.47-1.28,6.49-.78,10.93,2.71,21.78,1.31,32.76.39,15.69-1.32,31.14-4.64,47.18-3.47,9.53.69,19.58-1.35,28.92-3.88s18.33-2.46,27.75-.93c12.61,2,25.39,3,38.05,4.74,8,1.12,15.91,3.05,23.9,4.37a176.87,176.87,0,0,0,19.27,2.47c8.73.46,13.8,6.28,18.25,12.32,5.32,7.22,10.43,14,18.56,18.73,6.7,3.91,12.15,10.14,17.67,15.8,5.77,5.92,10.94,12.42,16.43,18.62,1.8,2,3.16,3.89.79,6.47a3.86,3.86,0,0,0-.57,2.74c.54,4.89,1.32,9.76,1.72,14.66a5.36,5.36,0,0,1-1.58,3.43q-14.38,15.82-29,31.49a16.34,16.34,0,0,1-6,4.26c-7.56,2.75-12.06,8.69-16,15-6.16,10.07-14.82,15.48-26.57,16.57-7.88.73-15.68,2.28-23.54,3.34-18.59,2.52-37.26,4.55-55.76,7.6-8.51,1.4-16.16-.46-24.29-2-11.16-2.05-22.65-2.41-34-3.41-13.89-1.23-27.82-2.17-41.69-3.61-10.8-1.12-21.58-2.62-32.23.52-7.35,2.16-11-3.93-13.56-7.73-7.14-10.59-12.29-22.5-18.91-33.49C627.46,531.53,630.7,517,630.08,503Z" transform="translate(-27.4 -14.34)"/><path class="cls-1" d="M612.87,364.14c-2.68-7.12-9.4-10.94-12.1-18.7-2.44-7-8.47-12.9-13.19-19.08a107,107,0,0,0-24.67-23.67c-6.25-4.26-6.55-10.62-7.44-16.61-2-13.33-9.74-23.23-17.82-33.19-7.81-9.64-16-19.1-22.53-29.61-3.83-6.2-4.61-14.28-6.79-21.51-3.14-10.43-6.56-20.79-9.41-31.3-2.54-9.37-4.81-18.85-6.58-28.39-2.2-11.89-2.93-24.11-5.86-35.8-2.17-8.69-6.61-16.86-10.43-25.08-4.74-10.17-9.32-20.48-15-30.1-4-6.71-9.84-12.32-14.72-18.52-1-1.29-1.47-3-2.18-4.55,1.44-.58,2.86-1.62,4.32-1.67,13.7-.46,27.07,1.79,40.47,4.49,11.29,2.29,22.24,5.27,32.2,10.95,13.56,7.73,26.63,16.2,35.13,30a31.38,31.38,0,0,0,4.46,5.33c14.28,14.53,24.82,31.8,35.45,48.94,4.48,7.23,7.23,15.53,11.48,22.94,6.08,10.59,13,20.73,19.26,31.2a120.45,120.45,0,0,1,14.73,35.47c1.56,6.87,4.73,13.58,5.1,20.47.46,8.8-1.21,17.71-1.91,26.58-.27,3.48-.28,7-.57,10.46-.53,6.22-1.27,12.43-1.73,18.65a18.18,18.18,0,0,0,.68,5.36c1.19,4.92.21,8.82-2.65,13.43-7.7,12.41-16.07,24.58-20.18,38.94-1.39,4.84-3.66,9.42-5.53,14.11Z" transform="translate(-27.4 -14.34)"/><path class="cls-1" d="M614.26,640.45c2.42,6.07,4.12,10.83,6.18,15.42,4,8.84,7.9,17.71,12.34,26.31,2.88,5.56,7.05,10.47,9.83,16.07,1.26,2.53.6,6,.76,9.11s.29,6.38.44,9.56c.2,4.32.27,8.65.65,13,.49,5.56,1.41,11.08,1.82,16.65,1,13.38,2.75,26.82-3.52,39.64-1.58,3.23-2,7-3.32,10.39-3.06,7.8-5.61,15.92-9.71,23.15-8.15,14.35-17.41,28.06-25.77,42.3-3.23,5.5-4.77,12-7.93,17.54a189.08,189.08,0,0,1-13.61,20.68c-11,14.52-21.67,29.35-33.76,42.91-10.74,12-24.51,20.5-39.91,26a176,176,0,0,1-57.53,10c-2.39,0-4.79-1.23-7.19-1.89,1.31-1.92,2.31-4.18,4-5.71,9.63-8.83,15.39-20.1,20.58-31.79,5.75-13,11.92-25.79,17.37-38.9,1.93-4.67,2.56-10,3.28-15,1.27-8.86,1.52-17.92,3.37-26.65,2.23-10.47,5.77-20.65,8.6-31,3.14-11.47,6.21-22.95,9.12-34.48a59.21,59.21,0,0,1,12-23.15c7.35-9,14.86-17.85,22.26-26.79s10.75-19.32,12-30.54a12,12,0,0,1,4.86-8.77c15-11.73,28.5-25.14,37.81-41.78,3.29-5.87,6.91-11.37,10.68-16.85C610.93,644.36,612.15,643.05,614.26,640.45Z" transform="translate(-27.4 -14.34)"/><path class="cls-1" d="M464.93,502.83c-1,22.69-11.62,40.52-28.71,54.92a78.59,78.59,0,0,1-37.77,17.68c-12.93,2.15-26.21,2.23-39.47-1.31-18.32-4.89-33.46-14.17-45.38-28.67-6.44-7.84-10.82-16.81-14.12-26.54-2.75-8.08-2.86-16.16-1.9-24.1,1.24-10.22,5.63-19.61,11.31-28.31,10.86-16.65,26.23-27.3,44.69-33.86a83.46,83.46,0,0,1,44.28-2.71c27.33,5.46,48.61,20.77,60.89,46.45C462.62,484.45,466.18,493.16,464.93,502.83Zm-88.54-15.24c-5.08-.3-11.88-1-14.41,6.75-1.19,3.65-1.18,7.78-1.19,11.7,0,7.27,4.21,11.49,11.43,11.76,3.81.14,7.71.44,11.44-.14a13.44,13.44,0,0,0,7-3.52c3.41-3.46,3.53-16.4,1.4-20.88C389,486.61,383.17,487.65,376.39,487.59Z" transform="translate(-27.4 -14.34)"/><path class="cls-1" d="M138.4,502.78c1.09-5.15,1.89-10,3.17-14.83,2.34-8.74,4.93-17.4,7.45-26.08a37.09,37.09,0,0,1,9.47-16.47c4.63-4.67,7.43-11.13,11.1-16.77q2.9-4.42,6-8.71c1.73-2.38,6.94-2.17,9.95.57q20.69,18.84,41.24,37.82c2.39,2.21,2.91,4.38.43,7.25-12,13.82-15.38,29.8-12.65,47.76,1.54,10.15,6,18.53,12.26,26.1,2.88,3.47,2.21,5.5-.64,8.34-9.52,9.45-18.72,19.17-30.25,26.41-3.94,2.47-6.57,7-10,10.39-3,3-8.5,3.56-10.3,1.13-2.31-3.11-4.45-6.33-6.56-9.58-1.45-2.21-2.66-4.57-4.07-6.8-1.93-3-3.39-6.68-6.05-8.83a28.32,28.32,0,0,1-9.3-14.35c-2.36-7.71-4.06-15.63-6.11-23.44-1-4-2.28-7.89-3.33-11.86C139.55,508.13,139,505.38,138.4,502.78Z" transform="translate(-27.4 -14.34)"/><path class="cls-1" d="M473.58,335.56c-1.27,17-2.34,34.11-3.93,51.12-.48,5.22-3.51,9.58-8,12.68-6,4.15-12,8.28-17.87,12.59a32,32,0,0,0-6,5.67c-2,2.5-3.88,3.3-6.8,1.55-6.53-3.9-13.51-5.86-21.15-7.28-10.28-1.92-20.43-2-30.7-2.15-4.27-.06-5.94-3.15-5.89-6.55.18-12.95,1.09-25.9,1.11-38.85,0-9.47-1.06-18.93-1.42-28.4-.2-5.3,0-10.63.15-15.94.11-3.34,1.89-4.85,5.41-5.14q30.83-2.57,61.62-5.48c8.77-.82,17.51-1.85,26.26-2.84,4.53-.51,6.34,1.35,6.2,5.95-.23,7.66-.06,15.33-.06,23Z" transform="translate(-27.4 -14.34)"/><path class="cls-1" d="M472.5,670.49c0,7.49-.15,15,.06,22.47.13,4.46-1.42,6.57-6.08,6-7.74-.88-15.5-1.67-23.26-2.45-11.08-1.11-22.15-2.22-33.24-3.23-10.75-1-21.53-1.69-32.25-2.89-1.6-.18-3.67-2.17-4.27-3.78a19.9,19.9,0,0,1-.88-7.86c.54-10.46,1.32-20.91,2-31.37a52.72,52.72,0,0,0,0-5.48c-.47-12.77-1.1-25.54-1.39-38.31-.13-6,2.2-7.7,8.14-8,11.72-.67,23.49-1.12,35.08-2.75,5-.69,9.66-3.9,14.29-6.32,2.54-1.33,4.22-1.63,6.54.61a170.09,170.09,0,0,0,13.44,11.41c3.65,2.84,7.7,5.17,11.42,7.93a18.39,18.39,0,0,1,7.73,13.37c1.13,12.06,2.16,24.12,3,36.2.34,4.79.06,9.63.06,14.45Z" transform="translate(-27.4 -14.34)"/><path class="cls-1" d="M181.77,352.52c-6.55,8.42-11.71,16.17-18,22.85A171.14,171.14,0,0,0,144.32,401c-6.48,10.18-14.13,19.61-21.14,29.45-2.49,3.5-4.34,7.48-7,10.79-1.16,1.42-4.16,2.82-5.61,2.29C99.11,439.37,87.75,435,76.6,430.11c-8.4-3.68-16.44-8.29-20.1-17.47-2.26-5.67-3.83-11.62-6-17.33-1.26-3.34-3.2-6.41-4.58-9.7-2.16-5.15-4.35-10.31-6.06-15.61-.88-2.73.34-5,3.28-6.41a68.16,68.16,0,0,1,25.67-7.16,83.1,83.1,0,0,0,27.84-6.7,78.3,78.3,0,0,1,18.61-5c8.81-1.39,16.09-5.75,23.45-10.2,2.25-1.37,4.55-3.14,7-3.54,2.72-.44,6.3-.46,8.39,1C163.21,338.21,171.87,345.06,181.77,352.52Z" transform="translate(-27.4 -14.34)"/><path class="cls-1" d="M181.69,653.07c-9.75,7.3-18.46,13.81-27.14,20.35-3.33,2.51-6.68,2.38-10.23.44-6.37-3.47-12.65-7.15-19.24-10.14-4.16-1.89-8.81-2.66-13.24-4-7.1-2.08-14.14-4.41-21.31-6.21s-14.56-3-21.8-4.64c-7.87-1.8-15.82-3.44-23.49-5.92-5.34-1.72-6.67-4.9-5.07-10.11a44.13,44.13,0,0,1,5.1-11.79c5.23-7.69,7.62-16.39,10.14-25.08s8.21-14.49,16-18c11.13-4.93,22.57-9.15,33.94-13.53,2.91-1.12,6.53-3,8.9-2.15s3.44,4.92,5.23,7.47c8.79,12.43,17.49,24.94,26.52,37.2,6.06,8.23,12.68,16.05,19,24.12C170.34,638.06,175.57,645,181.69,653.07Z" transform="translate(-27.4 -14.34)"/><path class="cls-1" d="M577.67,414.91c1.5,1.39,2.93,2.29,3.76,3.57,1.53,2.34,2.31,5.26,4.12,7.3,3.52,4,4,7.49,1.52,12.4-4.92,9.82-6.24,20.64-8.33,31.39-3.45,17.81-2.41,35.56-1.66,53.21.7,16.41,3.37,32.89,11.25,47.9.7,1.35.26,3.78-.48,5.29-1.89,3.85-4.27,7.44-6.4,11.17-1.83,3.23-4,3.36-6.18.36-12.71-17.24-27.12-32.7-45.95-43.45a60,60,0,0,0-8.56-3.89c-5.12-1.92-7.75-5.1-7.56-10.88.29-8.95,1.46-17.89,1.48-26.83,0-8.28-1.09-16.55-1.48-24.83-.1-2.08.66-4.2,1-6.3.75-4.87,5.09-5.14,8.41-7.06C531,459.41,540,455,547,448.52c10.21-9.36,18.92-20.36,28.26-30.67C576,417.05,576.65,416.17,577.67,414.91Z" transform="translate(-27.4 -14.34)"/><path class="cls-1" d="M484.37,323.56c0-4,.17-8-.05-12-.2-3.63,1.41-5,4.75-4.34a92.73,92.73,0,0,1,11.11,2.56c10.16,3.29,21,5.52,30.18,10.58,11.67,6.39,18.78,17,20.41,31,1.27,10.88,2.05,22.14,7.49,32.06,2.86,5.2,6.44,10,9.76,14.94,1.81,2.68,2.59,5.25.44,8.18-12.16,16.5-25.23,32.09-43,42.91a24,24,0,0,1-3.47,1.42c-.48-1.33-1.35-2.65-1.38-4-.08-4.32.47-8.67.2-13-.81-12.82-7.06-22.6-17.56-29.74-6.55-4.44-13.31-8.58-19.75-13.18-1.12-.8-1.65-3.23-1.52-4.83.64-8.43,2-16.81,2.31-25.24C484.67,348.51,484.36,336,484.37,323.56Z" transform="translate(-27.4 -14.34)"/><path class="cls-1" d="M484.34,674.88c0-10.31.32-20.63-.1-30.91-.33-8.1-1.57-16.16-2.38-24.23-.3-3.07.7-4.77,3.83-6.5,10.87-6,21.51-12.88,28.73-23.07,3.67-5.18,4.92-12.35,6.22-18.83.9-4.46-.11-9.28,0-13.93,0-2.9,1.28-4,4.11-2.12,14.08,9.35,26.58,20.36,36.3,34.32,1,1.49,2.32,2.81,3.48,4.22,6.82,8.24,7,9.12.78,17.4-7,9.31-11.62,19.27-12.55,31.17-.62,8-1.91,16.4-5.09,23.66-4.12,9.42-11,17.74-21,21.47-11.11,4.12-22.65,7.14-34.09,10.32-6.94,1.93-8.14.74-8.11-6.49,0-5.49,0-11,0-16.48Z" transform="translate(-27.4 -14.34)"/><path class="cls-1" d="M360.14,617.9c.74,8.43,1.68,16.85,2.15,25.3.2,3.76-.64,7.57-.81,11.37-.37,8.49-.62,17-.91,25.46-.17,5-1.42,6.4-5.95,5.1-13.12-3.75-26.76-5.6-39.21-11.83-5.83-2.92-12.6-3.91-18.84-6.06-7.63-2.65-15.23-5.42-22.69-8.49-3.77-1.55-5.27-4.59-4.33-9a65.71,65.71,0,0,0,1.26-11.88,90.25,90.25,0,0,1,8.65-36.41c1.77-3.73,7.6-5.89,12-8,7.29-3.48,14.86-6.35,22.34-9.42a76.34,76.34,0,0,1,9.56-3.54c1.4-.36,3.28.28,4.68,1,4.4,2.17,8.57,4.79,13,6.84A96.81,96.81,0,0,0,353.27,593c5.51,1.68,7.85,4.71,7.7,10.35-.13,4.82,0,9.65,0,14.48Z" transform="translate(-27.4 -14.34)"/><path class="cls-1" d="M361.08,360.39c0,14.61.24,29.22-.23,43.82-.08,2.59-2.55,6-4.89,7.42-3.07,1.9-7.22,2-10.71,3.35a117,117,0,0,0-10.84,5.33c-9.26,4.78-9.45,5.34-18.47,2-10.82-4-21.18-9.27-31.87-13.7-4.27-1.77-6.08-5.44-7-9.09-2.47-10.25-4.33-20.67-6.18-31.07-.76-4.23-.52-8.66-1.39-12.86-.91-4.41.71-7.41,4.44-8.89,9.5-3.77,19.13-7.21,28.76-10.65,8.68-3.1,17.39-6.13,26.15-9,4.85-1.58,9.83-2.81,14.77-4.12,3-.8,6.13-1.31,9.11-2.22,5.82-1.79,7.62-.59,7.83,5.35.4,11.46.87,22.91,1.32,34.37Z" transform="translate(-27.4 -14.34)"/><path class="cls-1" d="M310.17,433.15c-1,1.81-1.62,3.27-2.5,4.57-5.33,7.94-11.61,15.41-15.82,23.91a64.48,64.48,0,0,0-6.18,22.69,278.17,278.17,0,0,0-.17,36.18c.56,11.74,5.06,22.46,11.24,32.35,3.13,5,6.94,9.63,10.4,14.46,1,1.42,1.87,2.94,3.14,5-9,3.92-17.39,7.7-25.92,11.12a5.44,5.44,0,0,1-4.81-1.18c-8.17-8.89-16.31-17.82-24.05-27.08-6.36-7.61-11.15-16.83-18.47-23.26-9.59-8.43-10.48-18.62-10.37-29.74,0-3.66.12-7.33.49-11A20.93,20.93,0,0,1,233.26,478c5.4-5.54,9.54-12.29,14.62-18.17,6.61-7.64,13.71-14.86,20.42-22.42,3.73-4.2,6.9-8.9,10.72-13,1.26-1.35,4.16-2.69,5.58-2.15C293,425.5,301.27,429.29,310.17,433.15Z" transform="translate(-27.4 -14.34)"/><path class="cls-1" d="M445.72,427.09c3.88-3.22,8.45-7.16,13.18-10.91,5.05-4,10.07-8.1,15.47-11.58,1.86-1.2,5.64-1.83,7.16-.75,9.94,7,21.26,13,25.53,25.4a32.42,32.42,0,0,1,1,15.05c-2.35,14.93-8.27,29.15-7,44.84,1,12.07-.3,24.32.25,36.45.31,6.65,2.79,13.18,3.5,19.85,1.16,10.78,7.57,21.57,1.58,32.38-2.88,5.19-7.31,9.64-11.57,13.88a84.61,84.61,0,0,1-11.76,9.16c-3.46,2.39-6.43,2.31-10.12-.94-7.55-6.64-15.84-12.46-23.91-18.51a43,43,0,0,0-5.79-3.07c12.52-10.41,20.83-20.94,26.2-33.36,3.23-7.45,5.93-15.5,6.85-23.51,1.22-10.62.58-21.48.54-32.23-.06-13.28-4.45-25.41-11.55-36.32C459.73,444.26,452.87,436.4,445.72,427.09Z" transform="translate(-27.4 -14.34)"/><path class="cls-1" d="M269.85,415.47c-1.08,1.7-2.33,4.45-4.27,6.57-5.7,6.21-11.7,12.14-17.52,18.25-2.49,2.62-4.92,5.32-7.18,8.14-2.08,2.6-4,3.28-6.46.51-3.34-3.7-6.65-7.45-10.29-10.82-4.12-3.81-8.69-7.13-12.9-10.84Q202,419.09,193,410.64c-2.45-2.3-.61-3.83,1.12-5.7,13-14,29.33-23.75,44.34-35.19,5-3.8,9.94-7.63,14.91-11.44,2.9-2.24,4.25-.7,4.75,2.13a42.63,42.63,0,0,1,.6,6.95A91.72,91.72,0,0,0,264,396.58C266,402.45,267.67,408.44,269.85,415.47Z" transform="translate(-27.4 -14.34)"/><path class="cls-1" d="M270.45,590.46c-1.34,3-2.46,5-3.18,7.12-4.74,14.13-9,28.36-8.65,43.52a18.36,18.36,0,0,1-.51,3.95c-.67,3.34-2.13,4.27-5.13,1.93-6.11-4.78-12.34-9.41-18.54-14.07-10.05-7.56-20.21-15-30.13-22.71-3.78-3-6.86-6.78-10.54-9.88-2.65-2.23-2.43-4.22-.2-6.17,6.79-6,13.84-11.64,20.51-17.72,6.24-5.7,12.22-11.7,18.15-17.73,5.18-5.25,5-5,10,.44,6.77,7.48,14.28,14.29,21.2,21.65C266.14,583.71,268.18,587.31,270.45,590.46Z" transform="translate(-27.4 -14.34)"/><path class="cls-1" d="M587.1,498.65c1.83-12.25,4.22-28.64,6.82-45a18.62,18.62,0,0,1,2.94-7.78c.72-1,4.18-1.41,5.23-.6,5.87,4.59,11.46,9.56,16.95,14.61a5.4,5.4,0,0,1,1.25,4.05c-.63,5.62-1.64,11.19-2.36,16.8-.85,6.52-1.56,13.06-2.3,19.6-1.5,13.46,2.56,26.32,4.48,39.4.53,3.64-.42,5.77-3.39,8-4.54,3.34-8.51,7.43-12.81,11.09-4.82,4.11-5.72,3.66-7.88-2C589.43,539.41,589,521.11,587.1,498.65Z" transform="translate(-27.4 -14.34)"/><path class="cls-1" d="M506.62,288.67c16.17-2.95,27.92,4.9,39,14.84,6.77,6.09,14.46,11.24,20.73,17.78,7.78,8.1,14.62,17.12,21.63,25.94,1.88,2.38.68,4.15-2.36,5-5,1.43-10.05,3-15,4.9s-6.94.48-8-4.66c-1.56-7.36-2-15.53-5.62-21.75-6.51-11.09-15-20.91-28.23-25.15-11.47-3.7-22.72-8.05-35-8.27-1.55,0-3.89-2.55-4.36-4.32-.67-2.52,1.14-4.32,4.08-4.31Z" transform="translate(-27.4 -14.34)"/><path class="cls-1" d="M506.63,717.36c-4.48-.2-9-.09-13.4-.78a5.72,5.72,0,0,1-3.78-3.88c-.17-1.32,1.7-3.28,3.14-4.28,1.07-.73,2.9-.32,4.38-.5,14.86-1.82,29.66-4.8,42-13.39,13.41-9.3,22.87-21.84,23.49-39.31.28-7.9,2.49-8.93,9.68-5.91a82.69,82.69,0,0,0,12.72,3.87c4.08,1,5.25,2.59,2.65,5.69-7.84,9.36-15.69,18.76-24.21,27.48-6.93,7.08-14.7,13.38-22.36,19.7C531.05,714.22,520,719.52,506.63,717.36Z" transform="translate(-27.4 -14.34)"/><path class="cls-1" d="M595.53,597.4c7,3.12,14,6.13,20.8,9.5.72.35,1.07,3.24.45,4.24-7,11.38-14.06,22.75-21.67,33.72-1.05,1.52-5.39,1.62-7.93,1.07-4.61-1-9-3-13.51-4.53-8.56-2.88-9.8-5.78-4.8-13.41s10.64-14.7,15.68-22.25C587.19,601.78,589.53,597.94,595.53,597.4Z" transform="translate(-27.4 -14.34)"/><path class="cls-1" d="M594.73,408.34c-3.17-1.93-6.5-2.92-8.16-5.16-6-8-11.49-16.42-16.93-24.84a27.47,27.47,0,0,1-3.26-8.18c-.25-1,.84-2.92,1.83-3.45A105.21,105.21,0,0,1,579,361.94c2.59-1,5.29-1.72,8-2.46,4-1.12,7.47-1.24,10.13,3.25,6.2,10.49,12.87,20.7,19.38,31,1.69,2.67,1.5,4.47-1.72,5.81C608.2,402.29,601.7,405.27,594.73,408.34Z" transform="translate(-27.4 -14.34)"/><path class="cls-1" d="M187.21,394.46l-12.08-12.31c9.18-14.12,19.68-26.47,34.55-34.5,4.59-2.48,8.84-5.58,13.47-8a4.87,4.87,0,0,1,4.58,1.08,80.13,80.13,0,0,1,7.35,12.3c.53,1.12-.48,3.89-1.65,4.78-11.32,8.64-22.91,16.93-34.23,25.59C195.05,386.62,191.45,390.53,187.21,394.46Z" transform="translate(-27.4 -14.34)"/><path class="cls-1" d="M187.7,613c14.61,11,30,22.72,45.45,34.23,2.72,2,3.27,3.59,1.23,6.48-2.36,3.35-3.95,7.25-6.37,10.54-.85,1.16-3.65,2.18-4.75,1.63-4.64-2.33-8.91-5.37-13.43-8-12-6.85-22-15.72-29.63-27.31-1.44-2.2-3.13-4.23-5.36-7.22Z" transform="translate(-27.4 -14.34)"/><path class="cls-1" d="M647.67,415.4c-.77,1.05-1.28,1.67-1.71,2.35-5.76,9.22-11.71,18.34-17.16,27.74-1.91,3.29-3.74,3.74-6.13,1.38-8.67-8.57-17.2-17.27-25.68-26a4.4,4.4,0,0,1-1-3.44c.11-.55,1.89-.9,3-1.14,6.55-1.47,13.07-3,18.63-7.07a52.4,52.4,0,0,1,6.91-4.72c1.43-.73,3.73-1.22,5-.56,5.17,2.74,10.11,5.93,15.1,9A32.27,32.27,0,0,1,647.67,415.4Z" transform="translate(-27.4 -14.34)"/><path class="cls-1" d="M647.69,590.44c-1.92,1.28-3.61,2.51-5.4,3.56-3.79,2.24-7.53,4.61-11.51,6.46-1.79.84-5.46,1.41-5.95.63-3.28-5.17-9.36-5.65-13.83-8.7-3.15-2.15-7.8-2.1-11.75-3.12-1.21-.31-3-.64-3.32-1.47s.43-2.54,1.23-3.37q12.57-12.93,25.34-25.64c2.57-2.55,4.29-2.22,6.36,1.4,5.39,9.45,11.46,18.5,17.26,27.72C646.54,588.57,647,589.25,647.69,590.44Z" transform="translate(-27.4 -14.34)"/><path class="cls-1" d="M118.3,498.27c-1.5,0-3,.11-4.49,0-5.46-.48-6.94-4.17-4.64-9.12,4.1-8.77,7.62-17.81,11.33-26.76,1.82-4.4,3.46-8.86,5.34-13.23.32-.75,1.39-1.24,2.19-1.7a2.46,2.46,0,0,1,1.48-.07c4,.74,10.11-2.28,11.62,2.71,1.19,4-.57,9.37-2.37,13.54-3.87,9-9,17.34-10.89,27.22C126.47,498.33,126,498.24,118.3,498.27Z" transform="translate(-27.4 -14.34)"/><path class="cls-1" d="M118,507.28c8,0,8.42-.11,9.92,7.54,1.93,9.84,6.75,18.33,11,27.14a38,38,0,0,1,3.09,10.4c.24,1.45-1,4.43-1.95,4.57-4.33.67-8.89,1.21-13.13.45-1.51-.27-2.45-4.28-3.46-6.66-4-9.55-7.95-19.14-12-28.67-1.07-2.54-2.44-4.95-3.64-7.43-1.39-2.87,1.32-6.81,5.15-7.3A39.52,39.52,0,0,1,118,507.28Z" transform="translate(-27.4 -14.34)"/><path class="cls-1" d="M179.6,603.86a28.5,28.5,0,0,1-2.43,3.57c-1.93,2-4.31,3.65-5.94,5.85-2.44,3.29-4.42,2.14-6.36-.18-1.81-2.15-3.36-4.52-5.05-6.77-5.7-7.57-11.57-15-17-22.75a60.76,60.76,0,0,1-6.73-12.17c-1-2.45.66-3.95,3.79-4.26,6.87-.68,11.9,1.22,16.2,7,5.46,7.37,12,13.89,17.92,21C176.11,597.72,177.66,600.81,179.6,603.86Z" transform="translate(-27.4 -14.34)"/><path class="cls-1" d="M142.59,439.12c-2.14-.88-5.92-1.52-6.08-2.67a12.11,12.11,0,0,1,2-7.95c8.19-11.67,16.67-23.15,25.19-34.59,3.63-4.87,4.32-4.58,8.74-.76,9.32,8.05,7.75,10-.48,19.38-5.73,6.55-11.18,13.34-16.82,20C151.9,436.27,148.44,439.61,142.59,439.12Z" transform="translate(-27.4 -14.34)"/><path class="cls-1" d="M458.64,717.18c-13.7-1.12-27.42-2.12-41.1-3.47-2.47-.25-4.89-1.79-7.12-3.1a3.26,3.26,0,0,1-.87-3c.4-1,1.74-2.42,2.62-2.39,7.9.32,15.79.89,23.68,1.44,1.8.13,3.59.7,5.38.73,8.16.1,16.34-.23,24.48.24,4.45.26,8.89,1.6,13.18,2.94.91.28,1.66,2.75,1.52,4.11-.09.8-2.07,1.94-3.23,2-6.16.2-12.33.1-18.49.1C458.67,716.88,458.66,717,458.64,717.18Z" transform="translate(-27.4 -14.34)"/><path class="cls-1" d="M235.1,336.63c5.06-2.06,10.15-4.15,15.27-6.2.91-.36,2-.31,2.82-.84a52.59,52.59,0,0,1,20.21-8.88c2.68-.51,6-1,8.18.17,1.77.94,2.25,4.32,3.66,7.41-3.56,1.52-7.06,3.15-10.66,4.55a112.59,112.59,0,0,0-26.36,14.08c-3.87,2.84-9.09.49-10.84-4C236.64,341,236,339.07,235.1,336.63Z" transform="translate(-27.4 -14.34)"/><path class="cls-1" d="M234.77,667.67l9-12.45c12.86,10.58,27.19,16.18,42,21.89a34.12,34.12,0,0,0-2.52,3.55c-2.58,5.24-5.68,6.27-11,3.53-.73-.37-1.4-1.09-2.15-1.19-13-1.65-22.29-12-35.31-13.4C234.8,669,234.79,668.31,234.77,667.67Z" transform="translate(-27.4 -14.34)"/><path class="cls-1" d="M422,300.6c-3,0-6.05.34-9-.14-1.37-.23-2.48-2-3.72-3.11,1-1,1.92-2.17,3-3.1,4.34-3.71,9.64-2.62,14.68-2.88,16.07-.84,32.13-1.8,48.2-2.49,1.75-.07,4.68.91,5.14,2.13,1.12,3-.94,4.24-4,4.6-4.13.49-8.17,1.94-12.29,2.21-14,.93-28,1.52-42.07,2.24Z" transform="translate(-27.4 -14.34)"/><path class="cls-1" d="M289.89,689.78a42.67,42.67,0,0,0,2.05-5.44c.77-3.65,3.33-4.36,6.22-3.49,6.78,2,13.43,4.5,20.15,6.72,4.84,1.6,9.8,2.86,14.53,4.73,1.8.71,3.09,2.69,4.62,4.09-1.9,1.35-4.13,4.16-5.66,3.82C317.85,697.07,304,693.38,289.89,689.78Z" transform="translate(-27.4 -14.34)"/><path class="cls-1" d="M290.08,315.64c13.87-3.51,27.4-7.13,41.06-10.16,1.75-.4,4.18,2.24,6.3,3.47-1.31,1.43-2.35,3.58-4,4.18-9.09,3.34-18.32,6.33-27.52,9.38-3,1-5.95,2.32-9,2.49-1.58.09-3.68-1.73-4.83-3.23S290.88,318.2,290.08,315.64Z" transform="translate(-27.4 -14.34)"/><path class="cls-1" d="M386.41,710c-9-1.92-17.89-3.92-26.87-5.73-3.08-.62-6.41-.31-9.32-1.31-1.66-.57-2.71-2.93-4-4.48,2-1,4.17-3.19,6-3,8.75,1.07,17.42,2.82,26.13,4.25,5.84,1,11.75,1.61,17.53,2.87,1.47.32,2.55,2.47,3.8,3.78-1.33.79-2.61,2.11-4,2.28a74.65,74.65,0,0,1-9,.11Z" transform="translate(-27.4 -14.34)"/><path class="cls-1" d="M400.24,300.06c-1.49,1-2.88,2.52-4.49,2.78-7.29,1.18-14.67,1.79-22,3-7.07,1.16-14,3.07-21.11,4-2,.26-5.47-1.23-6.24-2.87-1.35-2.87,1.3-4.25,4.08-4.69,6.48-1,13.36-1.07,19.35-3.39,8.67-3.36,17.36-1.71,26-2.26,1.36-.09,2.8,1,4.2,1.6Z" transform="translate(-27.4 -14.34)"/><path d="M376.39,487.59c6.78.06,12.56-1,15.72,5.67,2.13,4.48,2,17.42-1.4,20.88a13.44,13.44,0,0,1-7,3.52c-3.73.58-7.63.28-11.44.14-7.22-.27-11.44-4.49-11.43-11.76,0-3.92,0-8.05,1.19-11.7C364.51,486.61,371.31,487.29,376.39,487.59Z" transform="translate(-27.4 -14.34)"/></svg>